<?xml version="1.0" encoding="utf-8"?>
<!-- Generator: Adobe Illustrator 23.0.4, SVG Export Plug-In . SVG Version: 6.00 Build 0)  -->
<svg version="1.1" id="Layer_1" xmlns="http://www.w3.org/2000/svg" xmlns:xlink="http://www.w3.org/1999/xlink" x="0px" y="0px"
	 viewBox="0 0 900 300" style="enable-background:new 0 0 900 300;" xml:space="preserve">
<style type="text/css">
	.st0{clip-path:url(#SVGID_2_);}
	.st1{fill:#222222;}
	.st2{font-family:'Avenir-Medium';}
	.st3{font-size:20px;}
	.st4{fill:#D34759;}
	.st5{enable-background:new    ;}
</style>
<g>
	<defs>
		<rect id="SVGID_1_" width="900" height="300"/>
	</defs>
	<clipPath id="SVGID_2_">
		<use xlink:href="#SVGID_1_"  style="overflow:visible;"/>
	</clipPath>
	<g id="Artboard_1" class="st0">
		<text transform="matrix(1 0 0 1 52.47 218)" class="st1 st2 st3">Allow Users to </text>
		<text transform="matrix(1 0 0 1 52.65 245)" class="st1 st2 st3">Collect Badges</text>
		<path id="certificate-solid" class="st4" d="M170.1,109.3l11.1-10.8c2.3-2.2,2.4-5.8,0.2-8.1c-0.7-0.8-1.7-1.3-2.8-1.6l-15.1-3.9
			l4.3-14.9c0.8-3.1-1-6.3-4.1-7.2c-1-0.3-2-0.3-3,0L145.7,67l-3.9-15.1c-0.8-3.1-4-4.9-7.1-4.1c-1,0.3-1.9,0.8-2.6,1.5l-10.8,11.2
			l-10.8-11.2c-2.2-2.3-5.9-2.3-8.2-0.1c-0.7,0.7-1.3,1.6-1.5,2.6L96.9,67l-14.9-4.3c-3.1-0.8-6.3,1-7.1,4.1c-0.3,1-0.3,2,0,3
			l4.3,14.9L64,88.7c-3.1,0.8-4.9,3.9-4.2,7c0.3,1.1,0.8,2,1.6,2.8l11.1,10.8l-11.1,10.8c-2.3,2.2-2.4,5.8-0.2,8.1
			c0.7,0.8,1.7,1.3,2.8,1.6l15.1,3.9l-4.3,14.9c-0.8,3.1,1,6.3,4.1,7.2c1,0.3,2,0.3,3,0l14.9-4.3l3.9,15.1c0.8,3.1,3.9,4.9,6.9,4.2
			c1.1-0.3,2-0.8,2.8-1.6l10.8-11.1l10.8,11.1c2.2,2.3,5.8,2.4,8.1,0.2c0.8-0.7,1.3-1.7,1.6-2.7l3.9-15.1l14.9,4.3
			c3.1,0.8,6.3-1,7.1-4.1c0.3-1,0.3-2,0-3l-4.3-15l15.1-3.9c3.1-0.8,4.9-3.9,4.2-7c-0.3-1.1-0.8-2-1.6-2.8L170.1,109.3z"/>
		<path id="wine-bottle-solid" class="st4" d="M513.8,59.4l-17.2-17.2c-1.6-1.6-4.2-1.6-5.7,0c0,0,0,0,0,0l-5.7,5.7
			c-1.6,1.6-1.6,4.2,0,5.7c0,0,0,0,0,0l-19.5,19.5c-12.2-5.2-26.3-2.4-35.6,6.9l-40.2,40.2c-6.3,6.3-6.3,16.6,0,23l23,23
			c6.3,6.3,16.6,6.3,23,0l40.2-40.2c9.3-9.4,12.1-23.5,6.9-35.6l19.5-19.5c1.6,1.6,4.2,1.6,5.7,0c0,0,0,0,0,0l5.7-5.7
			C515.4,63.6,515.4,61,513.8,59.4L513.8,59.4z M430.5,148.5l-23-23l31-31l23,23L430.5,148.5z"/>
		<text transform="matrix(1 0 0 1 342.16 218)" class="st1 st2 st3">Allow users to scan </text>
		<text transform="matrix(1 0 0 1 315.51 245)" class="st1 st2 st3">wine labels and add wine </text>
		<text transform="matrix(1 0 0 1 317.71 272)" class="st1 st2 st3">bottles to their collection</text>
		<path id="ticket-alt-solid" class="st4" d="M712.8,84.7h83.1v49.9h-83.1V84.7z M816.7,109.6c0,6.9,5.6,12.5,12.5,12.5V147
			c0,6.9-5.6,12.5-12.5,12.5H692.1c-6.9,0-12.5-5.6-12.5-12.5v-24.9c6.9,0,12.5-5.6,12.5-12.5l0,0c0-6.9-5.6-12.5-12.5-12.5V72.2
			c0-6.9,5.6-12.5,12.5-12.5c0,0,0,0,0,0h124.7c6.9,0,12.5,5.6,12.5,12.5v24.9C822.3,97.1,816.7,102.7,816.7,109.6L816.7,109.6z
			 M804.3,82.6c0-3.4-2.8-6.2-6.2-6.2l0,0h-87.3c-3.4,0-6.2,2.8-6.2,6.2l0,0v54c0,3.4,2.8,6.2,6.2,6.2l0,0H798
			c3.4,0,6.2-2.8,6.2-6.2l0,0V82.6z"/>
		<text transform="matrix(1 0 0 1 687.0107 218)" class="st5"><tspan x="0" y="0" class="st1 st2 st3">Allow users to</tspan><tspan x="-22.2" y="24" class="st1 st2 st3">add events directly</tspan><tspan x="-45.2" y="48" class="st1 st2 st3">to their google calendar</tspan></text>
	</g>
</g>
</svg>
